<svg width="89" height="20" viewBox="0 0 89 20" fill="none" xmlns="http://www.w3.org/2000/svg">
    <path id="XMLID_4_" style="fill:#FFFFFF;" d="M117,196.4h-10.6v-6.2h2.1v-9l-7.6-13.7h-3.4l3.1-6.2h8.1v6.2h-1.1l4.1,7.4l4.1-7.4
		h-1.1v-6.2h10.6v6.2h-2.7l-7.6,13.7v9h2.1V196.4z"/>
	<path id="XMLID_6_" style="fill:#FFFFFF;" d="M146.5,196.4c-4.9,0-9.1-1.7-12.5-5.2s-5.2-7.6-5.2-12.4s1.7-9,5.2-12.4
		s7.6-5.2,12.5-5.2c4.9,0,9.1,1.7,12.5,5.2s5.2,7.6,5.2,12.4s-1.7,9-5.2,12.4S151.4,196.4,146.5,196.4z M146.5,190.2
		c3.1,0,5.7-1.1,7.9-3.3s3.3-4.9,3.3-8.1s-1.1-5.9-3.3-8.1s-4.9-3.3-7.9-3.3c-3.1,0-5.7,1.1-7.9,3.3s-3.3,4.9-3.3,8.1
		s1.1,5.9,3.3,8.1S143.4,190.2,146.5,190.2z"/>
	<path id="XMLID_9_" style="fill:#FFFFFF;" d="M128.8,233.4h-6.4v-1.4c-1.6,0.9-3.9,1.4-7,1.4c-5,0-9.2-1.7-12.6-5.2
		s-5.2-7.6-5.2-12.4c0-4.8,1.7-9,5.2-12.4c3.4-3.4,7.6-5.2,12.6-5.2c4.4,0,8.2,1.4,11.3,4.1h2.8l-3.1,6.2h-3.9V207
		c-1.9-1.7-4.2-2.5-7-2.5c-3.1,0-5.8,1.1-8,3.3s-3.3,4.9-3.3,8.1c0,3.2,1.1,5.8,3.3,8.1c2.2,2.2,4.8,3.3,8,3.3c2.8,0,5.1-0.8,7-2.5
		V219h-8.3v-6.2h14.7V233.4z"/>
	<path id="XMLID_11_" style="fill:#FFFFFF;" d="M167,233.4h-8.5v-6.2h0l-1.5-4.1h-11.2l-1.6,4.1h0.1v6.2h-8.5v-6.2h1.9l8.5-22.7
		h-2.7l3.1-6.2h7.8l10.8,28.9h1.9V233.4z M154.7,216.9l-3.3-8.8l-3.3,8.8H154.7z"/>
</svg>
